<svg viewBox="0 0 1440 400" xmlns="http://www.w3.org/2000/svg"><path d="M 0,400 C 0,400 0,80 0,80 C 51.520439711439366,73.45860529027826 103.04087942287873,66.91721058055651 179,62 C 254.95912057712127,57.08278941944349 355.3569220199244,53.789762968052216 422,64 C 488.6430779800756,74.21023703194778 521.5314324974236,97.92373754723462 580,95 C 638.4685675025764,92.07626245276538 722.5173479903812,62.51528684300928 794,60 C 865.4826520096188,57.48471315699072 924.3991755410514,82.01511508072828 995,96 C 1065.6008244589486,109.98488491927172 1147.885949845414,113.42425283407763 1224,109 C 1300.114050154586,104.57574716592237 1370.057025077293,92.28787358296118 1440,80 C 1440,80 1440,400 1440,400 Z" stroke="none" stroke-width="0" fill="#5f00ba44" class="transition-all duration-300 ease-in-out delay-150"></path><path d="M 0,400 C 0,400 0,160 0,160 C 84.54070766059775,161.35417382342837 169.0814153211955,162.70834764685677 238,160 C 306.9185846788045,157.29165235314323 360.21504637581586,150.52078323600134 410,147 C 459.78495362418414,143.47921676399866 506.058399175541,143.20851940913778 584,150 C 661.941600824459,156.79148059086222 771.55135692202,170.6451391274476 847,173 C 922.44864307798,175.3548608725524 963.7361731363792,166.2109240810718 1027,167 C 1090.2638268636208,167.7890759189282 1175.503950532463,178.51116454826519 1248,179 C 1320.496049467537,179.48883545173481 1380.2480247337685,169.7444177258674 1440,160 C 1440,160 1440,400 1440,400 Z" stroke="none" stroke-width="0" fill="#5f00ba66" class="transition-all duration-300 ease-in-out delay-150"></path><path d="M 0,400 C 0,400 0,240 0,240 C 64.44520783236001,237.6564754379938 128.89041566472002,235.3129508759876 195,241 C 261.10958433528,246.6870491240124 328.8835451734799,260.4046719340433 408,269 C 487.1164548265201,277.5953280659567 577.5754036413604,281.0683613878392 651,266 C 724.4245963586396,250.93163861216075 780.8148402610786,217.32188251459982 842,214 C 903.1851597389214,210.67811748540018 969.1652353143247,237.64410855376155 1042,251 C 1114.8347646856753,264.35589144623845 1194.5242184816213,264.1016832703539 1262,260 C 1329.4757815183787,255.89831672964615 1384.7378907591892,247.94915836482306 1440,240 C 1440,240 1440,400 1440,400 Z" stroke="none" stroke-width="0" fill="#5f00ba88" class="transition-all duration-300 ease-in-out delay-150"></path><path d="M 0,400 C 0,400 0,320 0,320 C 70.23428375128825,330.17382342837516 140.4685675025765,340.34764685675026 205,338 C 269.5314324974235,335.65235314324974 328.36001374098237,320.78323600137406 394,312 C 459.63998625901763,303.21676399862594 532.0913775334938,300.5194091377533 607,301 C 681.9086224665062,301.4805908622467 759.2744761250428,305.1391274476125 820,305 C 880.7255238749572,304.8608725523875 924.8107179663348,300.92408107179665 995,308 C 1065.1892820336652,315.07591892820335 1161.4826520096187,333.16454826520095 1240,337 C 1318.5173479903813,340.83545173479905 1379.2586739951907,330.41772586739955 1440,320 C 1440,320 1440,400 1440,400 Z" stroke="none" stroke-width="0" fill="#5f00baff" class="transition-all duration-300 ease-in-out delay-150"></path></svg>